# xmcd
#
# Track frame offsets: 
#        150
#        25856
#        46432
#        70041
#        84521
#        98147
#        116780
#        138384
#        165736
#        180051
#        197950
#        217304
#        231021
#        253797
#
# Disc length: 3449 seconds
#
# Revision: 5
# Processed by: cddbd v1.5.2PL0 Copyright (c) Steve Scherf et al.
# Submitted via: ExactAudioCopyFreeDBPlugin 1.0
#
DISCID=c30d770e
DTITLE=Jeff Goldblum - The Capitol Studios Session
DYEAR=2018
DGENRE=Jazz
TTITLE0=Cantaloupe Island
TTITLE1=Don't Mess With Mister T (Feat.Till Brönner)
TTITLE2=My Baby Just Cares For Me (Feat. Haley Reinhart)
TTITLE3=Straighten Up And Fly Right (Feat. Imelda May)
TTITLE4=Jeff Introduces Sarah Silverman (Feat. Sarah Silverman)
TTITLE5=Me And My Shadow (Feat. Sarah Silverman)
TTITLE6=Nostalgia In Times Square
TTITLE7=It Never Entered My Mind (Feat. Till Brönner)
TTITLE8=Gee Baby [Ain't I Good To You] (Feat. Haley Reinhart)
TTITLE9=I Wish I Knew (How It Would Feel To Be Free)
TTITLE10=This Bitter Earth (Feat. Imelda May and Till Brönner)
TTITLE11=Come On-A-My House (Feat. Imelda May)
TTITLE12=Caravan (Feat. Imelda May)
TTITLE13=Good Nights
EXTD=YEAR: 2018
EXTT0=
EXTT1=
EXTT2=
EXTT3=
EXTT4=
EXTT5=
EXTT6=
EXTT7=
EXTT8=
EXTT9=
EXTT10=
EXTT11=
EXTT12=
EXTT13=
PLAYORDER=
